<svg width="52" height="42" viewBox="0 0 52 42" fill="none" xmlns="http://www.w3.org/2000/svg">
<g id="Group 8 Copy">
<g id="Group 3">
<mask id="mask0_1_13469" style="mask-type:luminance" maskUnits="userSpaceOnUse" x="0" y="0" width="52" height="42">
<path id="Clip 2" fill-rule="evenodd" clip-rule="evenodd" d="M0.117188 0.499023H51.3807V41.277H0.117188V0.499023Z" fill="white"/>
</mask>
<g mask="url(#mask0_1_13469)">
<path id="Fill 1" fill-rule="evenodd" clip-rule="evenodd" d="M48.7835 37.9206C48.799 38.2018 48.7461 38.4083 48.6262 38.5344C48.5045 38.6618 48.2958 38.7273 48.0057 38.7286C46.7558 38.7334 45.5081 38.7295 44.2609 38.7247L25.9557 38.6693L3.81371 38.6016H3.71554C3.63515 38.6021 3.55475 38.6025 3.47436 38.5994C2.89338 38.5775 2.71305 38.4531 2.71571 37.7154C2.71749 37.149 2.91559 36.9578 3.50101 36.9561C4.63454 36.953 5.76806 36.9574 6.90203 36.9618L47.8423 37.0848C48.5862 37.087 48.7444 37.2276 48.7835 37.9206ZM18.6259 10.8431C18.7107 10.7869 18.7969 10.7315 18.8826 10.6766C19.0056 10.5975 19.1287 10.5184 19.2491 10.4349C19.9064 9.97663 20.0779 9.26042 19.675 8.65229C19.2704 8.04109 18.5193 7.90356 17.8504 8.32011C15.7925 9.60007 14.0087 11.2355 12.5487 13.1816C12.4537 13.3086 12.3595 13.4373 12.2658 13.5656L12.0939 13.7932L10.705 12.9839C13.107 9.12069 17.2001 6.09545 21.9701 4.66609C27.2264 3.09086 32.7825 3.61769 37.6151 6.14949C42.7036 8.81531 46.392 13.1807 48.0008 18.4412C49.5731 23.5821 49.0454 29.1905 46.5568 33.867L14.313 15.0868C15.4829 13.3912 16.8963 12.0009 18.6259 10.8431ZM24.3607 24.519C25.0167 24.436 25.5595 24.5551 26.1755 24.918C28.4435 26.2568 30.7194 27.5829 32.9958 28.909C34.5055 29.7887 36.0153 30.6684 37.5224 31.5511C37.6685 31.6368 37.8084 31.7928 37.8706 31.9391C38.1526 32.6022 38.4165 33.2709 38.6959 33.9788L38.8953 34.4828L12.6612 34.405C12.6718 34.365 12.682 34.325 12.6923 34.2859C12.7589 34.0289 12.8211 33.7859 12.9063 33.5561C14.8611 28.2767 18.7152 25.2366 24.3607 24.519ZM42.683 34.5489C42.3117 34.5497 41.9417 34.5489 41.577 34.5335C41.5455 34.5264 41.4802 34.4764 41.4673 34.4544C41.3958 34.229 41.3412 33.9979 41.2816 33.7373L42.683 34.5489ZM38.634 3.7607C38.9183 3.29669 39.3975 3.05986 40.0909 3.03833C40.8944 3.01372 41.4949 3.35338 41.8369 4.02258C42.1412 4.6162 42.1532 5.19664 41.8751 5.75116L38.634 3.7607ZM50.624 35.9841C50.2922 35.597 49.8836 35.2899 49.4874 34.9929C49.363 34.8993 49.2391 34.8066 49.1205 34.7125C53.3139 24.5989 51.5465 15.3853 43.8664 7.32233C45.055 4.53832 44.5681 2.40461 42.4534 1.14618C41.5238 0.592985 40.5622 0.39262 39.5956 0.552121C38.2316 0.775774 37.122 1.52846 36.2941 2.78909L35.8322 2.63002C31.9505 1.28064 28.0521 0.926926 24.2477 1.57679C17.3155 2.7614 11.8598 6.38598 8.031 12.3503C7.6579 12.9312 7.53619 13.332 7.62369 13.6905C7.71253 14.0556 8.00124 14.3509 8.61908 14.7103C13.0182 17.2694 17.4155 19.8302 21.8128 22.3914C21.8296 22.4011 21.8461 22.4112 21.8634 22.4213L21.8296 22.431C15.7343 24.1943 11.786 28.1414 10.0942 34.1624C10.0178 34.4361 9.95871 34.4581 9.71175 34.4572C8.69548 34.448 7.67877 34.4454 6.66206 34.4432C5.66179 34.441 4.66151 34.4388 3.66124 34.4296C2.54326 34.4243 1.61271 34.8681 0.916253 35.7631C0.677288 36.0703 0.514277 36.4266 0.356596 36.7715C0.28775 36.9214 0.218903 37.0712 0.144282 37.2162L0.120297 37.2628L0.117188 38.3687L0.161605 38.4272C0.174042 38.443 0.187367 38.4588 0.212684 38.4795C0.814538 40.2476 2.06844 41.1466 3.93884 41.1519L40.0047 41.2617C42.0679 41.2692 44.1297 41.2771 46.1929 41.2771C46.7401 41.2771 47.2874 41.2767 47.8341 41.2753C49.2431 41.2718 50.3171 40.5877 51.0264 39.2405C51.6114 38.1288 51.4688 36.9723 50.624 35.9841Z" fill="#1D242D"/>
</g>
</g>
<path id="Fill 4" fill-rule="evenodd" clip-rule="evenodd" d="M45.3733 25.7127C45.3288 26.4515 45.854 27.0184 46.6219 27.0613C46.6531 27.0626 46.6843 27.0634 46.7155 27.0634C47.0595 27.0634 47.377 26.9573 47.6187 26.7603C47.8903 26.5372 48.0526 26.209 48.0734 25.8365C48.0919 25.5213 48.0885 25.2038 48.0852 24.8964C48.0838 24.7552 48.0829 24.6144 48.0833 24.4737V24.472C48.0639 20.2426 46.6318 16.4676 43.7046 12.9316C38.9033 7.13375 30.2082 4.43099 22.5568 6.36073C22.1665 6.45903 21.813 6.786 21.6124 7.05883C21.3328 7.43906 21.3905 7.90764 21.7704 8.3446C22.1352 8.76251 22.65 8.89762 23.2996 8.74648C25.8985 8.14063 28.2428 8.03885 30.4679 8.43554C37.3547 9.66285 42.0628 13.2958 44.4606 19.2327C45.2247 21.1244 45.5228 23.2442 45.3733 25.7127Z" fill="#1D242D"/>
<path id="Fill 6" fill-rule="evenodd" clip-rule="evenodd" d="M45.8057 27.5903C45.4674 27.2484 44.9813 27.0684 44.5139 27.0635C43.5239 27.0691 42.7691 27.8193 42.7579 28.8091C42.7523 29.3031 42.9367 29.763 43.2775 30.1036C43.6083 30.435 44.0509 30.6169 44.5251 30.6169H44.5444C45.5034 30.6069 46.296 29.8194 46.3109 28.8613C46.319 28.3791 46.1396 27.9273 45.8057 27.5903Z" fill="#1D242D"/>
</g>
</svg>
