<svg width="28" height="65" viewBox="0 0 28 65" fill="none" xmlns="http://www.w3.org/2000/svg">
<g id="Group">
<g id="Group_2">
<path id="Vector" d="M15.6912 33.0316L15.2891 32.501H18.3745C18.5996 32.7424 18.8272 32.9863 19.0548 33.2302L19.2571 33.444C19.2622 33.6954 19.2571 33.9544 19.2445 34.221L15.6912 33.0316Z" fill="#00B047"/>
<path id="Vector_2" d="M27.5088 52.4645C26.4061 57.3076 21.6186 61.4391 16.3709 62.0753C15.8272 62.1407 15.2784 62.1734 14.7296 62.1734C10.8146 62.1734 6.84406 60.5389 4.26698 57.7829C1.15375 54.4535 0.855317 49.7663 0.976711 45.6197L7.29675 45.8033C7.2133 48.6749 7.33722 51.8358 8.89763 53.503C10.453 55.1652 13.2122 56.1257 15.6071 55.834C17.9187 55.5549 20.7739 53.5759 21.343 51.0789C22.4709 46.1176 16.682 39.9266 14.7801 37.8923L14.4236 37.5101C12.8581 35.8354 11.3255 34.1958 9.8359 32.501H14.9066L15.5035 33.2881L19.0517 33.7709L18.7052 32.9184C18.7204 32.6896 19.7193 33.7709 19.56 33.7709C23.8138 38.3474 29.1602 45.2023 27.5088 52.4645Z" fill="#00B047"/>
<path id="Vector_3" d="M27.6233 19.4278L21.3159 19.8679C20.9618 14.8764 19.7656 11.6174 17.76 10.1841C15.3423 8.45909 11.3388 8.8388 9.1917 10.9938C6.81947 13.3777 6.44011 17.0867 8.27113 20.0162C9.58622 22.1184 11.091 24.3514 11.9939 26.1594C12.004 26.1795 12.4946 25.8853 12.5098 25.9029C12.5781 25.9834 12.6438 26.0664 12.7096 26.1469C14.5102 28.3396 16.4121 30.4016 18.3746 32.5013H9.83659C7.39355 29.7277 5.06685 26.8032 2.89947 23.333C-0.48184 17.9241 0.259165 11.0315 4.69761 6.57313C9.01466 2.23543 16.5284 1.56655 21.4474 5.07694C25.1043 7.68962 27.125 12.3819 27.6233 19.4278Z" fill="#FF7D29"/>
</g>
<g id="Group_3">
<g id="Group_4">
<g id="Group_5">
<path id="Vector_4" d="M11.4952 26.5548C12.3449 25.9513 14.6413 24.6588 15.1142 26.419C15.1142 26.419 19.8233 28.6168 19.3832 34.4305L15.5973 33.1632L11.3788 27.6084C11.1588 27.3167 11.1967 26.7685 11.4952 26.5573V26.5548Z" fill="#00B047"/>
<path id="Vector_5" d="M15.3598 26.4919C15.3294 25.9789 14.8084 25.4936 14.5834 25.388C14.0548 25.1441 13.2227 25.3402 12.5095 25.652C12.0467 25.8507 11.637 26.0996 11.3892 26.3058C11.0478 26.59 10.9896 27.3443 11.2602 27.6964L14.9071 32.5018H15.289L11.5005 27.5153C11.4297 27.4198 11.3942 27.3066 11.3942 27.196C11.3942 27.0426 11.4575 26.6428 11.5839 26.5371C11.8292 26.3309 12.2516 26.0845 12.7093 25.8959C13.3391 25.6319 14.0396 25.471 14.4544 25.6621C14.6896 25.7727 15.0588 26.2455 15.0588 26.5874V26.688L15.1524 26.7283C15.1954 26.7484 19.1103 28.5488 19.257 33.4448L19.4113 33.6107C19.4618 33.6635 19.5099 33.7189 19.5605 33.7717C19.5959 28.8456 16.0021 26.7987 15.3598 26.4919Z" fill="#FDFDFD"/>
</g>
<g id="Group_6">
<path id="Vector_6" d="M7.01408 28.617C7.01408 28.617 4.66208 28.353 4.67979 30.2591C4.68232 30.6237 4.87452 30.9657 5.18054 31.1643C5.48655 31.363 6.00247 31.6094 6.73083 31.7226C6.73083 31.7226 4.60392 33.5431 7.14812 34.4283C7.14812 34.4283 5.9873 36.87 9.24468 35.0947C9.24468 35.0947 6.79406 37.5238 11.0757 37.2421L14.6897 34.031L10.6281 28.5391L7.01408 28.617Z" fill="#00B047"/>
<path id="Vector_7" d="M10.7059 28.3857L7.02107 28.4637C6.88956 28.4511 5.73633 28.3556 5.04084 28.9792C4.6969 29.2885 4.52239 29.7185 4.52745 30.2591C4.53251 30.674 4.74495 31.0588 5.09648 31.2901C5.36203 31.4636 5.79449 31.6849 6.41663 31.8182C6.12074 32.1325 5.64528 32.7561 5.76415 33.3923C5.85519 33.8651 6.25225 34.2448 6.9452 34.5164C6.83139 34.8055 6.65183 35.4166 6.98313 35.7284C7.26891 35.9975 7.83289 35.9371 8.69782 35.5423C8.47779 35.8893 8.29064 36.342 8.46515 36.7267C8.67505 37.1894 9.31996 37.4182 10.4251 37.4182C10.63 37.4182 10.85 37.4107 11.0878 37.3956H11.1409L14.8965 34.0537L10.7059 28.3883V28.3857ZM11.0144 37.0938C9.36801 37.1944 8.86979 36.8826 8.74081 36.601C8.53596 36.1534 9.11258 35.4392 9.35031 35.2028L10.1014 34.456L9.17075 34.964C7.70897 35.7611 7.29927 35.6102 7.19052 35.5096C6.98061 35.3135 7.17028 34.7477 7.26892 34.5264L8.52837 33.5885L7.13741 34.2674C6.49756 34.0336 6.13338 33.7217 6.06004 33.3395C5.92347 32.6229 6.81622 31.8458 6.82634 31.8383L7.07418 31.6246L6.75046 31.5743C6.02716 31.4611 5.53906 31.2222 5.26087 31.0387C4.99785 30.8651 4.83093 30.5659 4.82841 30.2591C4.82335 29.8115 4.96244 29.457 5.24063 29.208C5.86025 28.6498 6.98314 28.768 6.99578 28.768H7.0059L10.5516 28.6925L14.4842 34.0109L11.0144 37.0963V37.0938Z" fill="#FDFDFD"/>
</g>
</g>
<path id="Vector_8" d="M19.2507 43.709C18.6488 43.709 18.1885 43.1709 18.0418 42.6403C17.9229 42.2078 17.9558 41.7627 17.9836 41.3327C17.9912 41.2246 17.9988 41.1165 18.0039 41.0084C18.0595 39.834 17.8193 38.6522 17.3059 37.5935C16.967 36.8919 16.5573 36.4217 16.0894 36.1929C16.4384 37.7092 16.6913 39.2607 16.8405 40.8072C16.881 41.2322 16.881 41.6647 16.5952 41.9639C16.5649 41.9941 16.5244 42.0117 16.4865 42.0117C16.4586 42.0117 16.4333 42.0041 16.4081 41.9891C15.7455 41.5943 15.4521 40.8424 15.2498 40.1559C14.969 39.2003 14.7844 38.2121 14.6984 37.2188C14.6807 37.0252 14.6327 36.7888 14.4936 36.7612H14.4885C14.3899 36.7612 14.3039 36.8341 14.266 36.9246C14.2129 37.0529 14.228 37.2163 14.2382 37.3597C14.3115 38.3077 14.3899 39.2909 14.7035 40.1961C14.8325 40.5683 14.9286 40.9505 14.7035 41.1039C14.6504 41.1391 14.5947 41.1567 14.5315 41.1567C14.3039 41.1567 14.1092 40.9128 14.0055 40.7795C13.6944 40.3898 13.4744 39.907 13.3226 39.2884C13.2518 38.9942 13.1987 38.6949 13.1456 38.4057C13.0773 38.0185 13.0065 37.6161 12.8902 37.2364C12.8345 37.0554 12.7587 36.8542 12.612 36.7436C12.5538 36.6983 12.4729 36.6732 12.397 36.6732C12.3641 36.6732 12.3136 36.6782 12.2706 36.7033L12.7258 38.6044C12.7764 38.8131 12.7688 39.0973 12.6373 39.2607C12.569 39.3487 12.4678 39.3965 12.3591 39.3965C12.1214 39.3839 11.9949 39.1903 11.9342 39.0973C11.4916 38.4208 11.1047 37.7016 10.7835 36.9598C10.7633 36.9146 10.743 36.8718 10.7253 36.8341C10.6191 36.6128 10.5104 36.3815 10.7177 36.0797C10.7911 35.9741 10.8771 35.8861 10.9605 35.8006C11.0263 35.7327 11.087 35.6698 11.1401 35.6019C11.3905 35.275 11.5599 34.9884 11.6712 34.7017C11.914 34.0781 11.8507 33.4067 11.5093 32.9943C11.1603 32.5718 10.6697 32.4914 10.1487 32.4084C10.0147 32.3858 9.8781 32.3631 9.74407 32.3355C9.52151 32.2902 9.43047 32.2475 9.4153 32.0237C9.4153 31.991 9.41024 31.9507 9.40265 31.8954C9.38242 31.7672 9.32931 31.6389 9.24838 31.5107C9.09664 31.2743 8.84879 31.0782 8.56807 30.97C8.31011 30.872 8.01421 30.8242 7.63739 30.8217H7.63486C7.48564 30.8217 7.36172 30.8292 7.2378 30.8342L7.07089 30.8443C7.03548 30.8443 7.00766 30.8493 6.9849 30.8493C6.7674 30.8493 6.75223 30.6809 6.74211 30.5677L6.73705 30.5174C6.72441 30.3992 6.71429 30.281 6.70418 30.1679C6.65865 29.6574 6.61819 29.1721 6.41587 28.6742C6.27677 28.3347 6.09721 28.0129 5.88224 27.7212C5.8696 27.7036 5.8266 27.6382 5.76843 27.5477C5.65968 27.3741 5.33597 26.8687 5.23228 26.7581C5.21205 26.7505 5.19182 26.7354 5.17411 26.7178C5.11848 26.655 5.12606 26.5594 5.18929 26.5041C5.99099 25.8176 6.80786 25.1814 7.59439 24.5704C8.37839 23.9593 9.19274 23.3281 9.98938 22.6442C10.0172 22.619 10.0526 22.6064 10.088 22.6064C10.1259 22.6064 10.1639 22.6215 10.1942 22.6492C11.1502 23.567 12.2276 24.3516 13.3935 24.9828C13.4466 25.0129 13.4769 25.0708 13.4719 25.1311C13.4668 25.1915 13.4238 25.2418 13.3656 25.2594C12.7915 25.4379 12.263 25.7899 11.8786 26.2501C11.7875 26.3582 11.5852 26.6348 11.6914 26.836C11.7546 26.9542 11.9165 27.0196 12.0505 27.0598C12.3768 27.1629 12.7182 27.2157 13.0647 27.2157C13.2012 27.2157 13.3378 27.2082 13.4744 27.1906L13.5199 27.1855C13.5983 27.1755 13.6792 27.1654 13.7602 27.1654C13.8537 27.1654 13.9347 27.178 14.008 27.2057C14.1749 27.266 14.2963 27.3993 14.3823 27.4948C16.4637 29.7806 17.9735 32.2852 18.8688 34.9431C19.8399 37.8274 20.0448 40.8147 19.453 43.5833C19.4378 43.6487 19.3822 43.6965 19.3164 43.7015C19.2937 43.7015 19.2684 43.7015 19.2456 43.7015L19.2507 43.709Z" fill="#FF7D29"/>
</g>
<path id="Vector_9" d="M18.9218 34.8427C18.019 32.1621 16.499 29.6399 14.405 27.3391C14.3114 27.236 14.1698 27.0826 13.9675 27.0097C13.8789 26.9745 13.7803 26.9594 13.669 26.9594C13.5755 26.9594 13.4869 26.9694 13.4085 26.9795L13.3655 26.987C13.2366 27.0021 13.1051 27.0097 12.9761 27.0097C12.6448 27.0097 12.3211 26.9594 12.0075 26.8613C11.8557 26.8135 11.7672 26.7632 11.7369 26.7104C11.6964 26.6325 11.7647 26.464 11.9063 26.293C12.2755 25.8555 12.7788 25.521 13.3251 25.35C13.4414 25.3148 13.5249 25.2117 13.535 25.091C13.5476 24.9703 13.4844 24.8546 13.3782 24.7968C12.2502 24.1883 10.447 22.8782 9.51889 21.998C9.68834 22.2369 9.83755 22.4909 10.0247 22.7172C10.1992 22.931 10.4243 23.0969 10.6317 23.2755C11.0515 23.6351 11.489 23.9695 11.9442 24.2788C12.1541 24.4221 12.3691 24.5579 12.5841 24.6912C12.6928 24.7566 12.8016 24.822 12.9128 24.8848C12.9609 24.9125 13.1835 25.0784 13.2315 25.0634C12.6271 25.252 12.0783 25.6166 11.6711 26.0994C11.4941 26.3106 11.3373 26.6073 11.4662 26.8512C11.5573 27.0222 11.7571 27.1027 11.9392 27.158C12.182 27.2335 12.4323 27.2838 12.6878 27.3014C12.9179 27.3164 13.1632 27.3164 13.401 27.2863C13.4869 27.2737 13.578 27.2611 13.6665 27.2611C13.7323 27.2611 13.798 27.2687 13.8612 27.2913C13.9877 27.3391 14.0863 27.4422 14.1774 27.5402C16.1298 29.6877 17.7079 32.1923 18.631 34.9382C19.5566 37.6817 19.8171 40.6665 19.2127 43.498C19.1924 43.5005 19.1722 43.5005 19.1545 43.5005C18.6487 43.5005 18.2263 43.0378 18.0923 42.5449C17.9507 42.0319 18.0341 41.4913 18.0594 40.9607C18.1176 39.7638 17.8697 38.5517 17.3488 37.473C17.0149 36.7839 16.5167 36.1075 15.7808 35.8913C16.1626 37.4956 16.4333 39.1225 16.5926 40.7646C16.628 41.1267 16.6432 41.5366 16.3903 41.8006C15.7833 41.441 15.4975 40.7294 15.3003 40.0555C15.0221 39.1074 14.84 38.1318 14.754 37.1486C14.7337 36.9072 14.668 36.6029 14.4303 36.5551C14.4126 36.5526 14.3949 36.5501 14.3772 36.5501C14.2279 36.5501 14.0888 36.6708 14.0332 36.8116C13.9675 36.97 13.9801 37.1461 13.9953 37.317C14.0711 38.2877 14.1495 39.2709 14.4682 40.1912C14.5163 40.3295 14.6933 40.8098 14.5238 40.9255C14.4985 40.9431 14.4682 40.9507 14.4379 40.9507C14.324 40.9507 14.1976 40.83 14.1066 40.7269C13.9927 40.5986 13.8865 40.4628 13.8005 40.3145C13.229 39.3237 13.2619 38.1896 12.9381 37.141C12.8749 36.9298 12.7864 36.7085 12.6094 36.5727C12.5234 36.5073 12.4096 36.4696 12.3008 36.4696C12.1845 36.4696 12.0757 36.5124 12.0049 36.6029C12.1643 37.2642 12.3236 37.9256 12.4829 38.5894C12.5411 38.8308 12.5057 39.1929 12.2629 39.1929H12.2502C12.1238 39.1879 12.0327 39.0697 11.9645 38.9641C11.5244 38.2927 11.1451 37.5836 10.8264 36.8493C10.7 36.5601 10.5583 36.3866 10.7455 36.1151C10.8669 35.9416 11.0363 35.8083 11.1653 35.6423C11.3878 35.3531 11.5851 35.0438 11.7191 34.7044C11.9543 34.0958 11.9493 33.3515 11.532 32.8461C11.0515 32.2677 10.3535 32.2778 9.68075 32.1369C9.48602 32.0967 9.47843 32.0841 9.47337 31.9735C9.46832 31.8729 9.4405 31.7095 9.40509 31.6164C9.25588 31.2317 8.91193 30.9274 8.53004 30.7816C8.21644 30.6609 7.88008 30.6232 7.54625 30.6206H7.52096C7.36164 30.6206 7.19978 30.6332 7.03792 30.6408C6.97216 30.6433 6.92411 30.6483 6.89123 30.6483C6.80272 30.6483 6.8103 30.6181 6.79513 30.4522C6.72685 29.7908 6.71926 29.1999 6.4613 28.5687C6.31967 28.2192 6.13505 27.8873 5.90997 27.583C5.86445 27.5176 4.98688 26.4816 4.83008 26.3156L5.10574 26.7004C5.09815 26.7155 5.35864 27.2536 5.13862 26.7381C5.09562 26.7155 5.39658 27.3516 5.54832 27.578C5.61155 27.671 5.65201 27.7414 5.66719 27.759C5.87457 28.0432 6.04654 28.3525 6.18058 28.6819C6.37531 29.1571 6.41325 29.6098 6.45877 30.1303C6.46889 30.246 6.479 30.3641 6.49165 30.4823L6.49671 30.5326C6.50682 30.6357 6.53464 30.9501 6.89123 30.9501C6.91652 30.9501 6.94687 30.9501 6.98734 30.9475L7.05562 30.9425L7.15425 30.9375C7.2807 30.9299 7.4021 30.9224 7.52096 30.9224H7.54372C7.90285 30.9249 8.18104 30.9702 8.4213 31.0632C8.67167 31.1588 8.89169 31.3348 9.02826 31.5435C9.09908 31.6516 9.14207 31.7623 9.15977 31.8704C9.16736 31.9182 9.16989 31.9534 9.17242 31.9836C9.19265 32.318 9.38738 32.3834 9.62005 32.4312C9.75915 32.4613 9.89825 32.484 10.0323 32.5066C10.5432 32.5896 10.9857 32.66 11.2993 33.0397C11.6079 33.4093 11.661 34.0204 11.4384 34.5962C11.3297 34.8703 11.1678 35.1444 10.925 35.4588C10.8795 35.5216 10.8188 35.582 10.7581 35.6448C10.6696 35.7354 10.5786 35.8284 10.4976 35.9441C10.2422 36.3162 10.3813 36.6104 10.4926 36.8468C10.5103 36.8845 10.5305 36.9248 10.5507 36.9675C10.8745 37.7169 11.2665 38.4461 11.7116 39.1301C11.7748 39.2256 11.9417 39.4796 12.2376 39.4947H12.2654C12.4222 39.4947 12.5638 39.4268 12.6625 39.3036C12.837 39.0848 12.8344 38.7428 12.7813 38.519L12.4981 37.3372L12.3641 36.7814C12.3868 36.789 12.407 36.799 12.4247 36.8116C12.5386 36.8971 12.6018 37.0706 12.6524 37.229C12.7662 37.6012 12.8319 37.9784 12.9027 38.3807C12.9558 38.6724 13.009 38.9742 13.0823 39.2734C13.2391 39.9146 13.4692 40.415 13.7803 40.8073L13.793 40.8224C13.9143 40.9733 14.1394 41.2549 14.4379 41.2549C14.5314 41.2549 14.6199 41.2273 14.6958 41.177C15.0474 40.9381 14.8551 40.3824 14.7616 40.1158L14.754 40.0957C14.448 39.2055 14.3696 38.2349 14.2962 37.2944C14.2861 37.1611 14.276 37.0228 14.3139 36.9273C14.3266 36.8946 14.3544 36.8694 14.3721 36.8594C14.3873 36.8795 14.4328 36.9575 14.453 37.1762C14.539 38.1796 14.7262 39.1753 15.0094 40.141C15.2067 40.8149 15.5228 41.6397 16.2335 42.0621C16.2815 42.0923 16.3372 42.1049 16.3903 42.1049C16.4712 42.1049 16.5496 42.0722 16.6103 42.0118C16.9365 41.6698 16.9391 41.1971 16.8961 40.7369C16.757 39.3036 16.5294 37.8677 16.2208 36.4596C16.5395 36.706 16.8253 37.0882 17.0731 37.6062C17.5764 38.6422 17.8116 39.799 17.7559 40.9481C17.7509 41.0538 17.7433 41.1619 17.7357 41.2675C17.7054 41.7101 17.675 42.1677 17.7989 42.6254C17.9583 43.2113 18.4767 43.8047 19.1545 43.8047C19.1798 43.8047 19.2076 43.8047 19.2354 43.8022C19.3695 43.7922 19.4807 43.6941 19.5086 43.5633C20.1054 40.7696 19.9006 37.7546 18.9193 34.8452L18.9218 34.8427Z" fill="#FDFDFD"/>
<g id="Group_7">
<path id="Vector_10" d="M17.121 0.105469H11.4863V2.28061H17.121V0.105469Z" fill="#FF7D29"/>
<path id="Vector_11" d="M17.121 62.7197H11.4863V64.8949H17.121V62.7197Z" fill="#00B047"/>
</g>
</g>
</svg>
