<svg width="854" height="299" viewBox="0 0 854 299" fill="none" xmlns="http://www.w3.org/2000/svg">
<path d="M19.0205 193.055C16.9178 193.379 15.3351 191.04 16.1296 188.782L25.946 160.884C26.7628 158.563 29.4644 158.071 30.7733 160.006L46.9347 183.894C48.2435 185.829 47.1597 188.712 44.9982 189.045L19.0205 193.055Z" fill="#8ABA51"/>
<path d="M572.677 295.728C548.176 239.264 460.817 109.147 410.481 181.353C366.046 245.094 527.14 334.659 528.276 180.792C529.411 26.9246 208.913 25.473 25.9171 183.184" stroke="#8ABA51" stroke-width="2" stroke-linejoin="round" stroke-dasharray="8 8"/>
<path opacity="0.1" d="M764.476 92.1244C764.476 92.1244 747.264 92.531 741.609 84.4725C735.955 76.4141 736.445 75.1171 736.445 75.1171C736.445 75.1171 741.505 73.4774 743.45 74.4382C745.401 75.399 742.951 76.038 742.497 76.0401C742.043 76.0423 737.481 74.1239 737.433 69.1532C737.386 64.1826 741.091 61.5574 741.091 61.5574C741.091 61.5574 744.908 61.6012 746.65 62.9861C746.65 62.9861 742.901 61.0017 743.144 57.7876C743.144 57.7876 748.646 53.2756 752.722 51.739C752.722 51.739 760.853 55.5807 761.826 62.4907C761.826 62.4907 762.794 58.9704 764.147 58.0522C764.147 58.0522 770.901 70.2083 767.829 72.6482C764.757 75.088 764.817 71.5721 766.354 70.5326C767.892 69.4932 772.324 67.4116 772.324 67.4116C772.324 67.4116 776.328 77.2758 769.434 79.2488L774.886 78.6758C774.886 78.6758 772.339 88.0279 767.908 90.7769C763.478 93.5259 756.751 84.3421 755.071 79.6199C753.391 74.8978 752.122 65.626 752.91 62.8323M762.678 94.5582C762.678 94.5582 749.631 99.3505 748.451 109.177C748.451 109.177 753.009 110.611 755.632 108.658C755.632 108.658 745.936 112.22 750.595 124.207C750.595 124.207 758.394 121.986 758.199 120.411C758.003 118.837 754.726 118.67 754.655 120.366C754.578 122.066 754.695 129.25 761.049 133.129C761.049 133.129 764.476 130.082 763.906 127.66C763.906 127.66 764.495 132.143 778.897 135.834C778.897 135.834 784.09 127.563 781.685 123.086C781.685 123.086 788.612 124.628 788.991 126.446C788.991 126.446 788.347 116.263 783.064 115.136C777.782 114.009 779.813 117.759 781.452 117.507C783.09 117.255 788.879 114.681 788.879 114.681C788.879 114.681 789.362 108.009 781.513 105.016C781.513 105.016 786.416 104.142 788.065 105.59C788.065 105.59 775.764 93.2778 766.312 93.6875C756.86 94.0972 767.667 120.614 771.916 123.453M757.987 117.141C757.987 117.141 761.004 109.486 766.825 109.699M766.762 103.029C766.762 103.029 774.595 104.447 776.66 111.107M745.831 69.5363C745.831 69.5363 749.544 76.8855 755.669 77.4763M760.028 83.2944C760.028 83.2944 761.754 73.3408 759.159 68.3824M738.711 85.6169C738.711 85.6169 726.293 80.0159 716.38 83.1375C716.38 83.1375 718.599 87.0074 720.54 86.9981C720.54 86.9981 700.872 83.8569 691.943 88.5895C691.943 88.5895 693.421 91.0077 696.574 91.3172C696.574 91.3172 681.366 98.3444 679.692 101.099C679.692 101.099 683.829 102.614 688.795 102.025C688.795 102.025 675.498 106.374 673.85 111.312C673.85 111.312 678.838 113.149 682.228 112.487C682.228 112.487 674.184 120.611 677.119 123.346C677.119 123.346 686.964 125.725 692.032 123.275C692.032 123.275 691.08 124.979 692.428 126.344C692.428 126.344 705.291 127.578 712.855 119.617C712.855 119.617 712.164 123.42 713.862 123.737C715.561 124.053 724.399 122.392 729.895 113.795C729.895 113.795 730.173 117.755 731.149 117.994C731.149 117.994 744.436 112.596 746.223 109.596M755.272 93.3025C755.272 93.3025 704.031 110.687 696.772 112.177C689.513 113.667 689.329 107.037 695.132 105.314C705.575 102.212 723.77 105.178 723.77 105.178M720.706 91.7676C720.706 91.7676 738.29 91.9282 743.061 96.7559M777.977 96.5896C777.977 96.5896 787.67 102.568 796.21 101.798C796.21 101.798 797.252 96.3374 794.871 95.0139C794.871 95.0139 799.654 100.447 815.287 100.252C815.287 100.252 815.802 96.8544 811.961 94.9325C811.961 94.9325 819.465 100.232 833.427 95.68C833.427 95.68 829.574 91.942 825.57 91.8371C825.57 91.8371 834.863 93.733 844.804 87.256C844.804 87.256 843.51 85.2017 838.959 84.4939C838.959 84.4939 847.833 80.812 851.237 75.3399C851.237 75.3399 845 69.9137 831.733 70.462C831.733 70.462 834.256 67.7804 834.959 65.2314C834.959 65.2314 826.018 61.8787 814.401 64.5999C814.401 64.5999 817.648 61.5538 816.542 60.2243C816.542 60.2243 797.284 62.2562 793.707 68.5789C793.707 68.5789 794.219 64.9367 792.758 64.218C792.758 64.218 776.247 68.1916 774.861 75.4593M770.655 91.5297C770.655 91.5297 777.329 85.991 799.477 81.8264C821.624 77.6618 828.336 76.1747 831.446 77.7354C834.557 79.2961 834.41 83.4215 829.677 83.1997C824.945 82.9779 806.94 82.823 802.899 78.2324M782.033 83.1896C782.033 83.1896 786.989 87.8961 796.454 88.9415C805.92 89.9868 810.466 89.6041 810.466 89.6041M725.083 80.4265C725.083 80.4265 714.384 77.3228 709.652 70.314C709.652 70.314 710.727 68.3687 717.298 68.093C717.298 68.093 703.111 64.5209 701.937 56.04C700.762 47.5554 704.024 46.0848 704.024 46.0848C704.024 46.0848 715.282 41.7861 713.189 46.0411C711.097 50.2961 705.092 43.4101 705.419 39.7725C705.745 36.1349 710.133 25.4393 720.024 20.0566L728.168 22.4431C728.168 22.4431 724.469 15.9107 725.178 13.9672C725.887 12.0236 744.103 2.23588 754.399 1.45745C754.399 1.45745 767.325 8.67162 767.783 18.8591C767.783 18.8591 772.88 20.0493 776.496 17.8475C776.496 17.8475 780.457 39.375 773.867 34.6762C767.276 29.9775 784.408 33.8966 788.101 32.3437C788.101 32.3437 792.404 46.0285 784.456 51.5842L791.75 53.6721C791.75 53.6721 790.491 61.0486 781.863 65.8454M747.533 12.6499C739.516 29.9091 746.678 49.2806 746.678 49.2806C746.678 49.2806 761.498 47.5105 764.643 33.1848M727.503 28.9962C727.503 28.9962 732.69 36.7323 745.785 37.64M718.626 51.8978C718.626 51.8978 722.936 57.1544 736.286 59.5161M740.274 116.011C740.274 116.011 722.747 128.1 730.848 139.265L736.025 137.315C736.025 137.315 729.485 144.322 733.219 155.129C736.953 165.935 744.83 166.139 744.83 166.139C744.83 166.139 754.693 162.321 749.538 160.824C744.383 159.328 749.123 169.007 751.117 171.641C753.111 174.279 761.389 180.972 767.959 182.385C767.959 182.385 768.534 174.443 769.845 174.196C771.155 173.949 775.865 186.195 793.112 187.798C793.112 187.798 799.471 183.679 802.032 176.931C802.032 176.931 801.061 171.403 798.235 170.935C798.235 170.935 804.166 171.228 805.763 172.424C805.763 172.424 810.165 169.518 811.937 160.287C811.937 160.287 807.776 148.888 805.047 152.329C802.318 155.77 814.389 153.094 817.792 154.967C817.792 154.967 823.646 149.407 820.914 138.194C820.914 138.194 818.567 132.914 813.08 131.014C813.08 131.014 819.854 130.26 822.157 130.891C822.157 130.891 817.173 112.873 804.031 111.571C790.888 110.27 806.202 109.876 808.061 109.867C808.061 109.867 801.528 101.401 794.952 100.63M772.423 137.688C772.423 137.688 772.893 161.778 790.517 178.835M765.963 172.001C765.963 172.001 768.676 155.978 778.594 151.08M778.477 138.79C778.477 138.79 787.237 139.879 799.202 148.392M750.963 150.241C750.963 150.241 749.706 145.721 750.855 138.922C752.005 132.126 755.124 130.655 755.124 130.655" stroke="#8ABA51" stroke-width="2" stroke-miterlimit="10"/>
</svg>
